<svg id="Layer_1" data-name="Layer 1" xmlns="http://www.w3.org/2000/svg" xmlns:xlink="http://www.w3.org/1999/xlink" viewBox="0 0 1023.73 571.55"><defs><style>.cls-1{fill:none;stroke:#080826;stroke-miterlimit:10;}.cls-2{fill:#080826;}.cls-10,.cls-11,.cls-12,.cls-13,.cls-14,.cls-15,.cls-3,.cls-4,.cls-5,.cls-6,.cls-7,.cls-8,.cls-9{isolation:isolate;opacity:0.61;}.cls-3{fill:url(#radial-gradient);}.cls-4{fill:url(#radial-gradient-2);}.cls-5{fill:url(#radial-gradient-3);}.cls-6{fill:url(#radial-gradient-4);}.cls-7{fill:url(#radial-gradient-5);}.cls-8{fill:url(#radial-gradient-6);}.cls-9{fill:url(#radial-gradient-7);}.cls-10{fill:url(#radial-gradient-8);}.cls-11{fill:url(#radial-gradient-9);}.cls-12{fill:url(#radial-gradient-12);}.cls-13{fill:url(#radial-gradient-15);}.cls-14{fill:url(#radial-gradient-16);}.cls-15{fill:url(#radial-gradient-18);}</style><radialGradient id="radial-gradient" cx="840.54" cy="58.15" r="398.14" gradientTransform="matrix(1.02, 0, 0, -0.91, -32.14, 507.62)" gradientUnits="userSpaceOnUse"><stop offset="0" stop-color="#09002b"/><stop offset="1" stop-color="#750045"/></radialGradient><radialGradient id="radial-gradient-2" cx="234.05" cy="110.98" r="238.52" gradientTransform="matrix(1, 0, 0, -1, 0, 570)" xlink:href="#radial-gradient"/><radialGradient id="radial-gradient-3" cx="545.73" cy="-60.69" r="100.8" gradientTransform="matrix(1, 0, 0, -1, 0, 570)" xlink:href="#radial-gradient"/><radialGradient id="radial-gradient-4" cx="75.86" cy="574.25" r="495.95" gradientTransform="matrix(1, 0, 0, -1, 0, 570)" xlink:href="#radial-gradient"/><radialGradient id="radial-gradient-5" cx="1105.08" cy="-771.39" r="254.47" gradientTransform="matrix(0.67, 0.69, 0.78, -0.59, 468.09, -1003.28)" xlink:href="#radial-gradient"/><radialGradient id="radial-gradient-6" cx="836.5" cy="69.13" r="398.14" gradientTransform="matrix(1, 0, 0, -1, 0, 570)" xlink:href="#radial-gradient"/><radialGradient id="radial-gradient-7" cx="1105.08" cy="-771.38" r="254.47" gradientTransform="matrix(0.67, 0.69, 0.78, -0.59, 468.09, -1003.28)" xlink:href="#radial-gradient"/><radialGradient id="radial-gradient-8" cx="1050.42" cy="1013.04" r="181.04" gradientTransform="matrix(0.97, -0.3, -0.33, -0.86, 265.17, 1157.06)" xlink:href="#radial-gradient"/><radialGradient id="radial-gradient-9" cx="428.12" cy="536.88" r="251.06" gradientTransform="matrix(1, 0, 0, -1, 0, 570)" xlink:href="#radial-gradient"/><radialGradient id="radial-gradient-12" cx="468.27" cy="7.25" r="176.89" gradientTransform="matrix(1, 0, 0, -1, 0, 570)" xlink:href="#radial-gradient"/><radialGradient id="radial-gradient-15" cx="1009.93" cy="-81.95" r="135.04" gradientTransform="matrix(1, 0, 0, -1, 0, 570)" xlink:href="#radial-gradient"/><radialGradient id="radial-gradient-16" cx="264.51" cy="-214.43" r="393.24" gradientTransform="matrix(1, 0, 0, -1, 0, 570)" xlink:href="#radial-gradient"/><radialGradient id="radial-gradient-18" cx="264.51" cy="-214.43" r="393.25" gradientTransform="matrix(1, 0, 0, -1, 0, 570)" xlink:href="#radial-gradient"/></defs><path class="cls-1" d="M965.51,362.13c-17.82-6.34-38.19-11.64-55.73-4.7-17,6.73-26.44,23.25-31,39.35s-5.66,33.05-12.56,48.48C850.46,480.47,804.51,501,762.39,496s-78.51-32.51-96.67-66.79a117.9,117.9,0,0,1-8.8-21.46,79.83,79.83,0,0,1-35.36-10.29c-17-9.86-39.5-34.52-35-54.43,4.83-21.63,37.21-31,49.68-48.5,12.68-17.75,8.91-40.92,2.53-61.18s-15-41.12-10.58-61.8c4.59-21.51,24.39-39.8,48.31-44.65s50.64,4,65.2,21.64a52.9,52.9,0,0,1,3.86,62C732,231.45,703.4,245.06,699.09,269c-2,10.85,1.57,21,6.7,31.08a80.5,80.5,0,0,1,15.27-4.47c22.07-4.15,44.84.57,67.25,2.86S835.54,300,852.85,287c19.6-14.64,23.42-40,23-62.85s-3.54-46.73,7-67.5c12.18-23.9,41.71-38.84,71.13-39.35,25.5-.45,50.36,8.93,70,23.6V8.27c0-5.92-5.75-10.73-12.85-10.73h-7.38c14.48,19.7,19.22,45.49,5.2,65-10.1,14-27.94,22.29-46.06,26.35-35.6,8-74.27,1.64-106.34-14.32-24.4-12.15-46.25-31-53.06-55.21a56.72,56.72,0,0,1-1.7-21.77H484.92C479.5,5,470.36,10.8,461.16,14.84a140.11,140.11,0,0,1-70.73,10.69c-19.82-2.16-42.19-8-58.1,2.79-10.74,7.27-14.1,19.14-17.34,31.23,38.66.27,79.08,14.8,94.75,41,7.89,13.17,8.34,29.36,2.84,43.46s-16.59,26.16-30,35.12c-26.21,17.57-62.3,23.29-93.2,13.52s-55.26-35.26-59.69-64.25a66.33,66.33,0,0,1-.77-9.54,199.79,199.79,0,0,1-37.32-3.58c-10.77-2-21.53-4.55-32.53-4.61s-22.59,2.79-30,10.06c-13.37,13.15-7.94,34.09.73,50.07S150,203.51,146.2,221c-3.53,16.42-20.79,28.69-39.23,31.62s-37.54-2.13-53.87-10.32C33,232.09,13.3,215.16,1.26,195.62V413.81a82.11,82.11,0,0,1,13.38-3.26c29-4.55,60.44,6.68,77.92,27.85,7.86,9.5,13.35,21,24.15,27.85,19.5,12.32,46,4.2,69.31-.62A170.47,170.47,0,0,1,228.59,462c7.5-32.91,22.7-65.37-21.56-86.48-14.85-7.08-28.13-8.36-39-21.19-13.28-15.65-18.73-37.43-13.81-56.55,8.14-31.64,43.91-55.69,80.24-53.92,24.24,1.17,49.38,15.53,53,36.95,2,12.06-2.76,24.08-5.32,36.07s-2.17,26,7.79,34.34c11.22,9.43,28.79,7.45,44.2,7.35,32.66-.19,65.61,11.71,87.34,33.47l1,1.08c17.74-22.5,56.69-31.91,78.72-10.6,24.21,23.41,26.68,63.09-6.06,81.88-14.59,8.38-33.7,9.07-49.71,3.25-.43,2-.93,3.88-1.52,5.8-7.07,22.77-25,41.9-46.24,56.05-23.29,15.54-52.12,25.78-80.86,26,.19,4.2.3,8.4.39,12.59h131.4c-7.93-12.67-8.88-29.14,1-40.48,11.55-13.26,33.25-15.55,51.79-12.64s36.23,9.87,55,11.07c17.16,1.1,35.79-2.4,50.63,5.35,13.62,7.12,19.16,23.69,13.85,36.7h272.4a52.07,52.07,0,0,1-4.77-15.79c-2.79-21.18,7.76-43,25.8-57,18.46-14.32,50.87-25.53,73.64-13.95,19.55,10,33.46,27.57,36.06,47.48V372.57c-1,.22-2,.41-3.08.57C1002,376,983.33,368.48,965.51,362.13Z" transform="translate(-0.76 2.96)"/><path class="cls-2" d="M1024,557.27v-15a60.78,60.78,0,0,1-9.64,25.43C1019.9,566.46,1024,562.27,1024,557.27Z" transform="translate(-0.76 2.96)"/><path class="cls-2" d="M954,117.29c-29.42.51-59,15.45-71.13,39.35-10.59,20.77-7.5,44.69-7,67.5s-3.38,48.21-23,62.85c-17.31,12.92-42.12,13.72-64.54,11.43s-45.18-7-67.25-2.86A80.61,80.61,0,0,0,705.79,300c7.14,14,17.39,27.71,20.38,42.75,4.47,22.48-9.33,46.52-31.66,57.66a75.38,75.38,0,0,1-37.59,7.29,117.9,117.9,0,0,0,8.8,21.46C683.88,463.47,720.27,491,762.39,496s88.07-15.51,103.83-50.72c6.9-15.43,8-32.37,12.56-48.48s14-32.62,31-39.35c17.54-6.94,37.91-1.64,55.73,4.7s36.49,13.85,55.41,11c1-.16,2.06-.35,3.08-.57V140.89C1004.37,126.22,979.51,116.84,954,117.29Z" transform="translate(-0.76 2.96)"/><path class="cls-3" d="M954,117.29c-29.42.51-59,15.45-71.13,39.35-10.59,20.77-7.5,44.69-7,67.5s-3.38,48.21-23,62.85c-17.31,12.92-42.12,13.72-64.54,11.43s-45.18-7-67.25-2.86A80.61,80.61,0,0,0,705.79,300c7.14,14,17.39,27.71,20.38,42.75,4.47,22.48-9.33,46.52-31.66,57.66a75.38,75.38,0,0,1-37.59,7.29,117.9,117.9,0,0,0,8.8,21.46C683.88,463.47,720.27,491,762.39,496s88.07-15.51,103.83-50.72c6.9-15.43,8-32.37,12.56-48.48s14-32.62,31-39.35c17.54-6.94,37.91-1.64,55.73,4.7s36.49,13.85,55.41,11c1-.16,2.06-.35,3.08-.57V140.89C1004.37,126.22,979.51,116.84,954,117.29Z" transform="translate(-0.76 2.96)"/><path class="cls-2" d="M304.1,500.58c9.26,15.65,11.85,35.11,12.75,54.83,28.74-.18,57.57-10.42,80.86-26,21.2-14.15,39.17-33.28,46.24-56,.59-1.92,1.09-3.85,1.52-5.8a52.72,52.72,0,0,1-19.22-11.9,47.59,47.59,0,0,1-3.82-62.53l.09-.1-1-1.08c-21.73-21.76-54.68-33.66-87.34-33.47-15.41.1-33,2.08-44.2-7.35-10-8.36-10.35-22.36-7.79-34.34s7.37-24,5.32-36.07c-3.66-21.42-28.8-35.78-53-37-36.33-1.77-72.1,22.28-80.24,53.92-4.92,19.12.53,40.9,13.81,56.55,10.9,12.83,24.18,14.11,39,21.19,44.21,21.15,29,53.57,21.51,86.57a124.1,124.1,0,0,1,23.71,3.38C273.82,470.66,293.68,483,304.1,500.58Z" transform="translate(-0.76 2.96)"/><path class="cls-4" d="M304.1,500.58c9.26,15.65,11.85,35.11,12.75,54.83,28.74-.18,57.57-10.42,80.86-26,21.2-14.15,39.17-33.28,46.24-56,.59-1.92,1.09-3.85,1.52-5.8a52.72,52.72,0,0,1-19.22-11.9,47.59,47.59,0,0,1-3.82-62.53l.09-.1-1-1.08c-21.73-21.76-54.68-33.66-87.34-33.47-15.41.1-33,2.08-44.2-7.35-10-8.36-10.35-22.36-7.79-34.34s7.37-24,5.32-36.07c-3.66-21.42-28.8-35.78-53-37-36.33-1.77-72.1,22.28-80.24,53.92-4.92,19.12.53,40.9,13.81,56.55,10.9,12.83,24.18,14.11,39,21.19,44.21,21.15,29,53.57,21.51,86.57a124.1,124.1,0,0,1,23.71,3.38C273.82,470.66,293.68,483,304.1,500.58Z" transform="translate(-0.76 2.96)"/><path class="cls-2" d="M607,531.3c-14.84-7.75-33.47-4.25-50.63-5.35-18.77-1.2-36.47-8.16-55-11.07s-40.24-.62-51.79,12.64c-9.89,11.34-8.94,27.81-1,40.48H620.87C626.18,555,620.64,538.42,607,531.3Z" transform="translate(-0.76 2.96)"/><path class="cls-5" d="M607,531.3c-14.84-7.75-33.47-4.25-50.63-5.35-18.77-1.2-36.47-8.16-55-11.07s-40.24-.62-51.79,12.64c-9.89,11.34-8.94,27.81-1,40.48H620.87C626.18,555,620.64,538.42,607,531.3Z" transform="translate(-0.76 2.96)"/><path class="cls-2" d="M53.15,242.21c16.33,8.19,35.42,13.25,53.87,10.32s35.7-15.2,39.23-31.62c3.75-17.44-7.73-34.16-16.4-50.15s-14.1-36.92-.73-50.07c7.39-7.27,19-10.12,30-10.06s21.76,2.64,32.53,4.61A200.11,200.11,0,0,0,229,118.82c-.3-41.14,41.71-59.58,86-59.27,3.24-12.09,6.6-24,17.34-31.23,15.91-10.77,38.28-4.95,58.1-2.79a140.11,140.11,0,0,0,70.73-10.69c9.2-4,18.34-9.8,23.76-17.3H14.11C7-2.46,1.26,2.35,1.26,8.27V195.62C13.3,215.16,33,232.09,53.15,242.21Z" transform="translate(-0.76 2.96)"/><path class="cls-6" d="M53.15,242.21c16.33,8.19,35.42,13.25,53.87,10.32s35.7-15.2,39.23-31.62c3.75-17.44-7.73-34.16-16.4-50.15s-14.1-36.92-.73-50.07c7.39-7.27,19-10.12,30-10.06s21.76,2.64,32.53,4.61A200.11,200.11,0,0,0,229,118.82c-.3-41.14,41.71-59.58,86-59.27,3.24-12.09,6.6-24,17.34-31.23,15.91-10.77,38.28-4.95,58.1-2.79a140.11,140.11,0,0,0,70.73-10.69c9.2-4,18.34-9.8,23.76-17.3H14.11C7-2.46,1.26,2.35,1.26,8.27V195.62C13.3,215.16,33,232.09,53.15,242.21Z" transform="translate(-0.76 2.96)"/><path class="cls-2" d="M699.09,269c4.31-23.89,32.87-37.5,46.43-58.45,12.28-19,10.69-44.35-3.86-62s-41.27-26.49-65.2-21.64S632.74,150,628.15,171.53c-4.42,20.68,4.21,41.53,10.58,61.8s10.15,43.43-2.53,61.18C623.73,312,591.35,321.38,586.52,343c-4.46,19.91,18,44.57,35,54.43a79.83,79.83,0,0,0,35.36,10.29c-5.69-19.15-6.13-39.48.6-58.27C665.21,328,683,309.17,705.79,300,700.66,290,697.13,279.8,699.09,269Z" transform="translate(-0.76 2.96)"/><path class="cls-7" d="M699.09,269c4.31-23.89,32.87-37.5,46.43-58.45,12.28-19,10.69-44.35-3.86-62s-41.27-26.49-65.2-21.64S632.74,150,628.15,171.53c-4.42,20.68,4.21,41.53,10.58,61.8s10.15,43.43-2.53,61.18C623.73,312,591.35,321.38,586.52,343c-4.46,19.91,18,44.57,35,54.43a79.83,79.83,0,0,0,35.36,10.29c-5.69-19.15-6.13-39.48.6-58.27C665.21,328,683,309.17,705.79,300,700.66,290,697.13,279.8,699.09,269Z" transform="translate(-0.76 2.96)"/><path class="cls-2" d="M657.52,349.46c-6.73,18.79-6.29,39.12-.6,58.27a75.38,75.38,0,0,0,37.59-7.29c22.33-11.14,36.13-35.18,31.66-57.66-3-15-13.24-28.78-20.38-42.75C683,309.17,665.21,328,657.52,349.46Z" transform="translate(-0.76 2.96)"/><path class="cls-8" d="M657.52,349.46c-6.73,18.79-6.29,39.12-.6,58.27a75.38,75.38,0,0,0,37.59-7.29c22.33-11.14,36.13-35.18,31.66-57.66-3-15-13.24-28.78-20.38-42.75C683,309.17,665.21,328,657.52,349.46Z" transform="translate(-0.76 2.96)"/><path class="cls-9" d="M657.52,349.46c-6.73,18.79-6.29,39.12-.6,58.27a75.38,75.38,0,0,0,37.59-7.29c22.33-11.14,36.13-35.18,31.66-57.66-3-15-13.24-28.78-20.38-42.75C683,309.17,665.21,328,657.52,349.46Z" transform="translate(-0.76 2.96)"/><path class="cls-2" d="M803.51,19.31c6.81,24.18,28.66,43.06,53.06,55.21,32.07,16,70.74,22.31,106.34,14.32,18.12-4.06,36-12.33,46.06-26.35,14-19.46,9.28-45.25-5.2-64.95h-202A56.53,56.53,0,0,0,803.51,19.31Z" transform="translate(-0.76 2.96)"/><path class="cls-10" d="M803.51,19.31c6.81,24.18,28.66,43.06,53.06,55.21,32.07,16,70.74,22.31,106.34,14.32,18.12-4.06,36-12.33,46.06-26.35,14-19.46,9.28-45.25-5.2-64.95h-202A56.53,56.53,0,0,0,803.51,19.31Z" transform="translate(-0.76 2.96)"/><path class="cls-2" d="M258.47,115.32a126,126,0,0,1-29.52,3.5,66.33,66.33,0,0,0,.77,9.54c4.43,29,28.79,54.48,59.69,64.25s67,4,93.2-13.52c13.38-9,24.46-21,30-35.12s5.05-30.29-2.84-43.46c-15.67-26.16-56.09-40.69-94.75-41-1.72,6.43-3.41,12.92-6.16,18.83C300.2,96.92,280.14,109.93,258.47,115.32Z" transform="translate(-0.76 2.96)"/><path class="cls-11" d="M258.47,115.32a126,126,0,0,1-29.52,3.5,66.33,66.33,0,0,0,.77,9.54c4.43,29,28.79,54.48,59.69,64.25s67,4,93.2-13.52c13.38-9,24.46-21,30-35.12s5.05-30.29-2.84-43.46c-15.67-26.16-56.09-40.69-94.75-41-1.72,6.43-3.41,12.92-6.16,18.83C300.2,96.92,280.14,109.93,258.47,115.32Z" transform="translate(-0.76 2.96)"/><path class="cls-2" d="M229,118.82a126,126,0,0,0,29.52-3.5c21.67-5.39,41.73-18.4,50.36-36.94,2.75-5.91,4.44-12.4,6.16-18.83C270.66,59.24,228.65,77.68,229,118.82Z" transform="translate(-0.76 2.96)"/><path class="cls-6" d="M229,118.82a126,126,0,0,0,29.52-3.5c21.67-5.39,41.73-18.4,50.36-36.94,2.75-5.91,4.44-12.4,6.16-18.83C270.66,59.24,228.65,77.68,229,118.82Z" transform="translate(-0.76 2.96)"/><path class="cls-11" d="M229,118.82a126,126,0,0,0,29.52-3.5c21.67-5.39,41.73-18.4,50.36-36.94,2.75-5.91,4.44-12.4,6.16-18.83C270.66,59.24,228.65,77.68,229,118.82Z" transform="translate(-0.76 2.96)"/><path class="cls-2" d="M445.47,467.6c16,5.82,35.12,5.13,49.71-3.25,32.74-18.79,30.27-58.47,6.06-81.88-22-21.31-61-11.9-78.72,10.6C442,413.27,451.2,441.51,445.47,467.6Z" transform="translate(-0.76 2.96)"/><path class="cls-12" d="M445.47,467.6c16,5.82,35.12,5.13,49.71-3.25,32.74-18.79,30.27-58.47,6.06-81.88-22-21.31-61-11.9-78.72,10.6C442,413.27,451.2,441.51,445.47,467.6Z" transform="translate(-0.76 2.96)"/><path class="cls-2" d="M426.25,455.7a52.72,52.72,0,0,0,19.22,11.9c5.73-26.09-3.43-54.33-23-74.53l-.09.1A47.58,47.58,0,0,0,426.25,455.7Z" transform="translate(-0.76 2.96)"/><path class="cls-4" d="M426.25,455.7a52.72,52.72,0,0,0,19.22,11.9c5.73-26.09-3.43-54.33-23-74.53l-.09.1A47.58,47.58,0,0,0,426.25,455.7Z" transform="translate(-0.76 2.96)"/><path class="cls-12" d="M426.25,455.7a52.72,52.72,0,0,0,19.22,11.9c5.73-26.09-3.43-54.33-23-74.53l-.09.1A47.58,47.58,0,0,0,426.25,455.7Z" transform="translate(-0.76 2.96)"/><path class="cls-2" d="M987.94,481.25c-22.77-11.58-55.18-.37-73.64,13.95-18,14-28.59,35.83-25.8,57a52,52,0,0,0,4.77,15.8h117.88a15,15,0,0,0,3.21-.35,60.78,60.78,0,0,0,9.64-25.43V528.73C1021.4,508.82,1007.49,491.21,987.94,481.25Z" transform="translate(-0.76 2.96)"/><path class="cls-13" d="M987.94,481.25c-22.77-11.58-55.18-.37-73.64,13.95-18,14-28.59,35.83-25.8,57a52,52,0,0,0,4.77,15.8h117.88a15,15,0,0,0,3.21-.35,60.78,60.78,0,0,0,9.64-25.43V528.73C1021.4,508.82,1007.49,491.21,987.94,481.25Z" transform="translate(-0.76 2.96)"/><path class="cls-2" d="M290.21,552.52c-36.89-8.59-67.65-40.37-64.41-74.28A129.36,129.36,0,0,1,228.59,462,170.67,170.67,0,0,0,186,465.63c-23.28,4.82-49.81,12.94-69.31.62-10.8-6.83-16.29-18.35-24.15-27.85-17.48-21.17-48.9-32.4-77.92-27.85a82.11,82.11,0,0,0-13.38,3.26V557.27C1.26,563.2,7,568,14.11,568H317.24c-.09-4.19-.2-8.39-.39-12.59A114.83,114.83,0,0,1,290.21,552.52Z" transform="translate(-0.76 2.96)"/><path class="cls-14" d="M290.21,552.52c-36.89-8.59-67.65-40.37-64.41-74.28A129.36,129.36,0,0,1,228.59,462,170.67,170.67,0,0,0,186,465.63c-23.28,4.82-49.81,12.94-69.31.62-10.8-6.83-16.29-18.35-24.15-27.85-17.48-21.17-48.9-32.4-77.92-27.85a82.11,82.11,0,0,0-13.38,3.26V557.27C1.26,563.2,7,568,14.11,568H317.24c-.09-4.19-.2-8.39-.39-12.59A114.83,114.83,0,0,1,290.21,552.52Z" transform="translate(-0.76 2.96)"/><path class="cls-2" d="M290.21,552.52a114.83,114.83,0,0,0,26.64,2.89c-.9-19.72-3.49-39.18-12.75-54.83-10.42-17.62-30.28-29.92-51.8-35.25A123.24,123.24,0,0,0,228.59,462a128.33,128.33,0,0,0-2.79,16.29C222.56,512.15,253.32,543.93,290.21,552.52Z" transform="translate(-0.76 2.96)"/><path class="cls-4" d="M290.21,552.52a114.83,114.83,0,0,0,26.64,2.89c-.9-19.72-3.49-39.18-12.75-54.83-10.42-17.62-30.28-29.92-51.8-35.25A123.24,123.24,0,0,0,228.59,462a128.33,128.33,0,0,0-2.79,16.29C222.56,512.15,253.32,543.93,290.21,552.52Z" transform="translate(-0.76 2.96)"/><path class="cls-15" d="M290.21,552.52a114.83,114.83,0,0,0,26.64,2.89c-.9-19.72-3.49-39.18-12.75-54.83-10.42-17.62-30.28-29.92-51.8-35.25A123.24,123.24,0,0,0,228.59,462a128.33,128.33,0,0,0-2.79,16.29C222.56,512.15,253.32,543.93,290.21,552.52Z" transform="translate(-0.76 2.96)"/></svg>